<svg id="d7580hf" viewBox="0 0 264 80" width="403" height="122" role="img" xmlns="http://www.w3.org/2000/svg"><title>Melodía de ejemplo de dos compases en compás partido (alla breve) en Do mayor</title>
   <defs>
      <g id="E050-d7580hf">
         <path transform="scale(1,-1)" d="M420 -206l-58 329c-59 -14 -104 -63 -104 -124c0 -49 22 -75 61 -99c12 -8 22 -13 22 -22s-9 -13 -17 -13c-80 0 -135 96 -135 166c0 94 62 190 153 217c-7 41 -14 88 -23 142c-15 -15 -31 -29 -48 -44c-88 -76 -174 -185 -174 -307c0 -151 122 -251 265 -251 c19 0 38 2 58 6zM332 822c-8 -31 -11 -65 -11 -102c0 -42 5 -81 11 -121c69 68 146 146 146 250c0 69 -24 118 -39 118c-52 0 -98 -105 -107 -145zM562 -21c0 89 -65 150 -155 150c7 -44 34 -203 55 -323c71 29 100 102 100 173zM122 -513c0 66 45 123 115 123 c75 0 116 -57 116 -111c0 -64 -47 -104 -94 -111c-3 -1 -5 -2 -5 -4c0 -1 2 -2 3 -3c2 0 23 -5 47 -5c101 0 154 55 154 159c0 53 -11 123 -30 219c-23 -4 -50 -7 -79 -7c-186 0 -349 147 -349 334c0 200 126 321 217 406c21 17 73 70 74 71c-17 112 -22 161 -22 215 c0 84 18 212 82 288c33 39 64 51 71 51c18 0 47 -35 71 -86c16 -36 44 -110 44 -201c0 -159 -73 -284 -179 -395c9 -56 19 -115 29 -175c146 0 253 -102 253 -253c0 -103 -73 -205 -171 -237c6 -39 12 -69 15 -89c10 -57 16 -102 16 -141c0 -63 -14 -129 -68 -167 c-36 -22 -77 -34 -124 -34c-135 0 -186 87 -186 153z" />
      </g>
      <g id="E08B-d7580hf">
         <path transform="scale(1,-1)" d="M136 102v-191c0 -66 23 -109 71 -126v432c-57 -16 -71 -68 -71 -115zM424 -83h13c5 0 8 -3 8 -8c-4 -107 -81 -165 -180 -165h-9v-109c0 -6 -5 -11 -11 -11h-27c-6 0 -11 5 -11 11v112c-195 21 -207 156 -207 265c0 61 22 225 207 244v121c0 6 5 11 11 11h27 c6 0 11 -5 11 -11v-120c159 -4 196 -93 205 -134c1 -4 2 -11 2 -15v-6c0 -50 -40 -90 -90 -90h-10c-41 5 -75 37 -80 78c-1 4 -1 8 -1 12c0 32 18 61 43 77c2 1 2 2 2 4c0 1 0 2 -1 4c-10 16 -29 33 -70 35v-446h9c88 0 147 50 151 133c0 4 4 8 8 8z" />
      </g>
      <g id="E0A4-d7580hf">
         <path transform="scale(1,-1)" d="M0 -42c0 92 116 174 213 174c62 0 112 -33 112 -92c0 -88 -109 -173 -213 -173c-81 0 -112 48 -112 91z" />
      </g>
      <g id="E0A3-d7580hf">
         <path transform="scale(1,-1)" d="M75 -86c46 0 215 85 215 135c0 22 -16 36 -40 36c-47 0 -215 -86 -215 -135c0 -9 7 -36 40 -36zM213 132c62 0 112 -33 112 -92c0 -88 -109 -173 -213 -173c-81 0 -112 48 -112 91c0 93 116 174 213 174z" />
      </g>
   </defs>
   <style type="text/css">#d7580hf g.ending, #d7580hf g.fing, #d7580hf g.reh, #d7580hf g.tempo {font-weight:bold;}#d7580hf g.dir, #d7580hf g.dynam, #d7580hf g.mNum {font-style:italic;}#d7580hf g.label {font-weight:normal;}#d7580hf ellipse, #d7580hf path, #d7580hf polygon, #d7580hf polyline, #d7580hf rect {stroke:currentColor}#d7580hf g.cursor {fill:dodgerblue; color:dodgerblue;}#d7580hf g.cursor.chord {fill:limegreen; color:limegreen;}</style>
   <svg class="definition-scale" color="black" font-family="Times, serif" viewBox="0 0 6590 2000">
      <g class="page-margin" transform="translate(100, 100)">
         <g id="e1q3t4hm" class="mdiv pageMilestone" />
         <g id="fl22w9u" class="score pageMilestone" />
         <g id="armmwvh" class="system">
            <g id="t12nq1w1" class="section systemMilestone" />
            <g id="ugz8ufg" class="measure">
               <g id="d51lfkt" class="staff">
                  <path d="M0 540 L4106 540" stroke-width="13" />
                  <path d="M0 720 L4106 720" stroke-width="13" />
                  <path d="M0 900 L4106 900" stroke-width="13" />
                  <path d="M0 1080 L4106 1080" stroke-width="13" />
                  <path d="M0 1260 L4106 1260" stroke-width="13" />
                  <g id="c1f5666a" class="clef">
                     <use href="#E050-d7580hf" transform="translate(90, 1080) scale(0.72, 0.72)" />
                  </g>
                  <g id="d1bf7vdn" class="keySig" />
                  <g id="ez3azcf" class="meterSig">
                     <use href="#E08B-d7580hf" transform="translate(730, 900) scale(0.72, 0.72)" />
                  </g>
                  <g class="ledgerLines below">
                     <path d="M2665 1440 L2995 1440" stroke-width="22" />
                  </g>
                  <g id="eugs53d" class="layer">
                     <g id="n0" class="note">
                        <g class="notehead">
                           <use href="#E0A4-d7580hf" transform="translate(1333, 1080) scale(0.72, 0.72)" />
                        </g>
                        <g id="k1k4wh75" class="stem">
                           <path d="M1557 1052 L1557 450" stroke-width="18" />
                        </g>
                     </g>
                     <g id="n1" class="note">
                        <g class="notehead">
                           <use href="#E0A4-d7580hf" transform="translate(2023, 1260) scale(0.72, 0.72)" />
                        </g>
                        <g id="luek18l" class="stem">
                           <path d="M2247 1232 L2247 630" stroke-width="18" />
                        </g>
                     </g>
                     <g id="n2" class="note">
                        <g class="notehead">
                           <use href="#E0A4-d7580hf" transform="translate(2713, 1440) scale(0.72, 0.72)" />
                        </g>
                        <g id="mtl4h2w" class="stem">
                           <path d="M2937 1412 L2937 810" stroke-width="18" />
                        </g>
                     </g>
                     <g id="n3" class="note">
                        <g class="notehead">
                           <use href="#E0A4-d7580hf" transform="translate(3403, 1260) scale(0.72, 0.72)" />
                        </g>
                        <g id="n1o90y99" class="stem">
                           <path d="M3627 1232 L3627 630" stroke-width="18" />
                        </g>
                     </g>
                  </g>
               </g>
               <g id="c1srbkt7" class="barLine">
                  <path d="M4093 540 L4093 1260" stroke-width="27" />
               </g>
            </g>
            <g id="j1j1wmnp" class="measure">
               <g id="s152t4rp" class="staff">
                  <path d="M4106 540 L6399 540" stroke-width="13" />
                  <path d="M4106 720 L6399 720" stroke-width="13" />
                  <path d="M4106 900 L6399 900" stroke-width="13" />
                  <path d="M4106 1080 L6399 1080" stroke-width="13" />
                  <path d="M4106 1260 L6399 1260" stroke-width="13" />
                  <g id="t1o7e99e" class="layer">
                     <g id="n4" class="note">
                        <g class="notehead">
                           <use href="#E0A3-d7580hf" transform="translate(4286, 1080) scale(0.72, 0.72)" />
                        </g>
                        <g id="o8jedzc" class="stem">
                           <path d="M4510 1052 L4510 450" stroke-width="18" />
                        </g>
                     </g>
                     <g id="n5" class="note">
                        <g class="notehead">
                           <use href="#E0A3-d7580hf" transform="translate(5336, 810) scale(0.72, 0.72)" />
                        </g>
                        <g id="peq7nu7" class="stem">
                           <path d="M5345 840 L5345 1440" stroke-width="18" />
                        </g>
                     </g>
                  </g>
               </g>
               <g id="ry02kql" class="barLine">
                  <path d="M6386 540 L6386 1260" stroke-width="27" />
               </g>
            </g>
            <g id="d96jzyd" class="systemMilestoneEnd t12nq1w1" />
         </g>
         <g id="e1j0p74r" class="pageMilestoneEnd fl22w9u" />
         <g id="f19v3zsx" class="pageMilestoneEnd e1q3t4hm" />
      </g>
   </svg>
</svg>
