<svg id="d8l0z4e" viewBox="0 0 63 80" width="173" height="220" role="img" xmlns="http://www.w3.org/2000/svg"><title>Figura corchea en el pentagrama</title>
   <defs>
      <g id="E050-d8l0z4e">
         <path transform="scale(1,-1)" d="M420 -206l-58 329c-59 -14 -104 -63 -104 -124c0 -49 22 -75 61 -99c12 -8 22 -13 22 -22s-9 -13 -17 -13c-80 0 -135 96 -135 166c0 94 62 190 153 217c-7 41 -14 88 -23 142c-15 -15 -31 -29 -48 -44c-88 -76 -174 -185 -174 -307c0 -151 122 -251 265 -251 c19 0 38 2 58 6zM332 822c-8 -31 -11 -65 -11 -102c0 -42 5 -81 11 -121c69 68 146 146 146 250c0 69 -24 118 -39 118c-52 0 -98 -105 -107 -145zM562 -21c0 89 -65 150 -155 150c7 -44 34 -203 55 -323c71 29 100 102 100 173zM122 -513c0 66 45 123 115 123 c75 0 116 -57 116 -111c0 -64 -47 -104 -94 -111c-3 -1 -5 -2 -5 -4c0 -1 2 -2 3 -3c2 0 23 -5 47 -5c101 0 154 55 154 159c0 53 -11 123 -30 219c-23 -4 -50 -7 -79 -7c-186 0 -349 147 -349 334c0 200 126 321 217 406c21 17 73 70 74 71c-17 112 -22 161 -22 215 c0 84 18 212 82 288c33 39 64 51 71 51c18 0 47 -35 71 -86c16 -36 44 -110 44 -201c0 -159 -73 -284 -179 -395c9 -56 19 -115 29 -175c146 0 253 -102 253 -253c0 -103 -73 -205 -171 -237c6 -39 12 -69 15 -89c10 -57 16 -102 16 -141c0 -63 -14 -129 -68 -167 c-36 -22 -77 -34 -124 -34c-135 0 -186 87 -186 153z" />
      </g>
      <g id="E0A4-d8l0z4e">
         <path transform="scale(1,-1)" d="M0 -42c0 92 116 174 213 174c62 0 112 -33 112 -92c0 -88 -109 -173 -213 -173c-81 0 -112 48 -112 91z" />
      </g>
      <g id="E240-d8l0z4e">
         <path transform="scale(1,-1)" d="M0 -227v226c0 7 6 13 13 13c6 0 11 -4 12 -8c0 0 9 -36 10 -39c2 -4 19 -61 56 -118c27 -42 122 -165 119 -165c0 0 74 -95 79 -224c0 -91 -17 -184 -62 -264c-4 -7 -9 -11 -16 -11c-6 0 -10 4 -10 10c-1 4 1 9 3 15c26 72 45 146 45 218c0 83 -29 126 -47 157 c-65 111 -151 165 -194 179c-7 3 -8 8 -8 11z" />
      </g>
   </defs>
   <style type="text/css">#d8l0z4e g.ending, #d8l0z4e g.fing, #d8l0z4e g.reh, #d8l0z4e g.tempo {font-weight:bold;}#d8l0z4e g.dir, #d8l0z4e g.dynam, #d8l0z4e g.mNum {font-style:italic;}#d8l0z4e g.label {font-weight:normal;}#d8l0z4e ellipse, #d8l0z4e path, #d8l0z4e polygon, #d8l0z4e polyline, #d8l0z4e rect {stroke:currentColor}#d8l0z4e g.cursor {fill:dodgerblue; color:dodgerblue;}#d8l0z4e g.cursor.chord {fill:limegreen; color:limegreen;}</style>
   <svg class="definition-scale" color="black" font-family="Times, serif" viewBox="0 0 1560 2000">
      <g class="page-margin" transform="translate(100, 100)">
         <g id="eqz4byo" class="mdiv pageMilestone" />
         <g id="f1iyjigq" class="score pageMilestone" />
         <g id="jr0vqm" class="system">
            <g id="s1uq3obe" class="section systemMilestone" />
            <g id="t45u7hs" class="measure">
               <g id="c1xbvsyj" class="staff">
                  <path d="M0 540 L1360 540" stroke-width="13" />
                  <path d="M0 720 L1360 720" stroke-width="13" />
                  <path d="M0 900 L1360 900" stroke-width="13" />
                  <path d="M0 1080 L1360 1080" stroke-width="13" />
                  <path d="M0 1260 L1360 1260" stroke-width="13" />
                  <g id="wk1vlq9" class="clef">
                     <use href="#E050-d8l0z4e" transform="translate(90, 1080) scale(0.72, 0.72)" />
                  </g>
                  <g id="xvimd3u" class="keySig" />
                  <g id="dm6g3jj" class="layer">
                     <g id="n0" class="note">
                        <g class="notehead">
                           <use href="#E0A4-d8l0z4e" transform="translate(820, 1080) scale(0.72, 0.72)" />
                        </g>
                        <g id="r1ks12v9" class="stem">
                           <path d="M1044 1052 L1044 450" stroke-width="18" />
                           <g id="svd074s" class="flag">
                              <use href="#E240-d8l0z4e" transform="translate(1035, 450) scale(0.72, 0.72)" />
                           </g>
                        </g>
                     </g>
                  </g>
               </g>
               <g id="bjujsgk" class="barLine">
                  <path d="M1347 540 L1347 1260" stroke-width="27" />
               </g>
            </g>
            <g id="mhtx7q9" class="systemMilestoneEnd s1uq3obe" />
         </g>
         <g id="nlo6qbt" class="pageMilestoneEnd f1iyjigq" />
         <g id="o1frydr2" class="pageMilestoneEnd eqz4byo" />
      </g>
   </svg>
</svg>
