<svg id="p1a18u26" viewBox="0 0 69 80" width="189" height="220" role="img" xmlns="http://www.w3.org/2000/svg"><title>Figura negra en el pentagrama</title>
   <defs>
      <g id="E050-p1a18u26">
         <path transform="scale(1,-1)" d="M420 -206l-58 329c-59 -14 -104 -63 -104 -124c0 -49 22 -75 61 -99c12 -8 22 -13 22 -22s-9 -13 -17 -13c-80 0 -135 96 -135 166c0 94 62 190 153 217c-7 41 -14 88 -23 142c-15 -15 -31 -29 -48 -44c-88 -76 -174 -185 -174 -307c0 -151 122 -251 265 -251 c19 0 38 2 58 6zM332 822c-8 -31 -11 -65 -11 -102c0 -42 5 -81 11 -121c69 68 146 146 146 250c0 69 -24 118 -39 118c-52 0 -98 -105 -107 -145zM562 -21c0 89 -65 150 -155 150c7 -44 34 -203 55 -323c71 29 100 102 100 173zM122 -513c0 66 45 123 115 123 c75 0 116 -57 116 -111c0 -64 -47 -104 -94 -111c-3 -1 -5 -2 -5 -4c0 -1 2 -2 3 -3c2 0 23 -5 47 -5c101 0 154 55 154 159c0 53 -11 123 -30 219c-23 -4 -50 -7 -79 -7c-186 0 -349 147 -349 334c0 200 126 321 217 406c21 17 73 70 74 71c-17 112 -22 161 -22 215 c0 84 18 212 82 288c33 39 64 51 71 51c18 0 47 -35 71 -86c16 -36 44 -110 44 -201c0 -159 -73 -284 -179 -395c9 -56 19 -115 29 -175c146 0 253 -102 253 -253c0 -103 -73 -205 -171 -237c6 -39 12 -69 15 -89c10 -57 16 -102 16 -141c0 -63 -14 -129 -68 -167 c-36 -22 -77 -34 -124 -34c-135 0 -186 87 -186 153z" />
      </g>
      <g id="E0A4-p1a18u26">
         <path transform="scale(1,-1)" d="M0 -42c0 92 116 174 213 174c62 0 112 -33 112 -92c0 -88 -109 -173 -213 -173c-81 0 -112 48 -112 91z" />
      </g>
   </defs>
   <style type="text/css">#p1a18u26 g.ending, #p1a18u26 g.fing, #p1a18u26 g.reh, #p1a18u26 g.tempo {font-weight:bold;}#p1a18u26 g.dir, #p1a18u26 g.dynam, #p1a18u26 g.mNum {font-style:italic;}#p1a18u26 g.label {font-weight:normal;}#p1a18u26 ellipse, #p1a18u26 path, #p1a18u26 polygon, #p1a18u26 polyline, #p1a18u26 rect {stroke:currentColor}#p1a18u26 g.cursor {fill:dodgerblue; color:dodgerblue;}#p1a18u26 g.cursor.chord {fill:limegreen; color:limegreen;}</style>
   <svg class="definition-scale" color="black" font-family="Times, serif" viewBox="0 0 1720 2000">
      <g class="page-margin" transform="translate(100, 100)">
         <g id="q1yqwg9e" class="mdiv pageMilestone" />
         <g id="r1kvjq8s" class="score pageMilestone" />
         <g id="v1d1qii6" class="system">
            <g id="eka1zwx" class="section systemMilestone" />
            <g id="f8cfrp2" class="measure">
               <g id="o1v601jv" class="staff">
                  <path d="M0 540 L1523 540" stroke-width="13" />
                  <path d="M0 720 L1523 720" stroke-width="13" />
                  <path d="M0 900 L1523 900" stroke-width="13" />
                  <path d="M0 1080 L1523 1080" stroke-width="13" />
                  <path d="M0 1260 L1523 1260" stroke-width="13" />
                  <g id="h1d13pxm" class="clef">
                     <use href="#E050-p1a18u26" transform="translate(90, 1080) scale(0.72, 0.72)" />
                  </g>
                  <g id="i1cm5pfq" class="keySig" />
                  <g id="p1dqjr4q" class="layer">
                     <g id="n0" class="note">
                        <g class="notehead">
                           <use href="#E0A4-p1a18u26" transform="translate(820, 1080) scale(0.72, 0.72)" />
                        </g>
                        <g id="d16555xe" class="stem">
                           <path d="M1044 1052 L1044 450" stroke-width="18" />
                        </g>
                     </g>
                  </g>
               </g>
               <g id="nn7gf19" class="barLine">
                  <path d="M1510 540 L1510 1260" stroke-width="27" />
               </g>
            </g>
            <g id="y4xbtqe" class="systemMilestoneEnd eka1zwx" />
         </g>
         <g id="z9d6ll4" class="pageMilestoneEnd r1kvjq8s" />
         <g id="a7mnyae" class="pageMilestoneEnd q1yqwg9e" />
      </g>
   </svg>
</svg>
