<svg id="b138e71y" viewBox="0 0 120 80" width="275" height="183" role="img" xmlns="http://www.w3.org/2000/svg"><title>Seisillo: seis semicorcheas con el número 6</title>
   <defs>
      <g id="E050-b138e71y">
         <path transform="scale(1,-1)" d="M420 -206l-58 329c-59 -14 -104 -63 -104 -124c0 -49 22 -75 61 -99c12 -8 22 -13 22 -22s-9 -13 -17 -13c-80 0 -135 96 -135 166c0 94 62 190 153 217c-7 41 -14 88 -23 142c-15 -15 -31 -29 -48 -44c-88 -76 -174 -185 -174 -307c0 -151 122 -251 265 -251 c19 0 38 2 58 6zM332 822c-8 -31 -11 -65 -11 -102c0 -42 5 -81 11 -121c69 68 146 146 146 250c0 69 -24 118 -39 118c-52 0 -98 -105 -107 -145zM562 -21c0 89 -65 150 -155 150c7 -44 34 -203 55 -323c71 29 100 102 100 173zM122 -513c0 66 45 123 115 123 c75 0 116 -57 116 -111c0 -64 -47 -104 -94 -111c-3 -1 -5 -2 -5 -4c0 -1 2 -2 3 -3c2 0 23 -5 47 -5c101 0 154 55 154 159c0 53 -11 123 -30 219c-23 -4 -50 -7 -79 -7c-186 0 -349 147 -349 334c0 200 126 321 217 406c21 17 73 70 74 71c-17 112 -22 161 -22 215 c0 84 18 212 82 288c33 39 64 51 71 51c18 0 47 -35 71 -86c16 -36 44 -110 44 -201c0 -159 -73 -284 -179 -395c9 -56 19 -115 29 -175c146 0 253 -102 253 -253c0 -103 -73 -205 -171 -237c6 -39 12 -69 15 -89c10 -57 16 -102 16 -141c0 -63 -14 -129 -68 -167 c-36 -22 -77 -34 -124 -34c-135 0 -186 87 -186 153z" />
      </g>
      <g id="E0A4-b138e71y">
         <path transform="scale(1,-1)" d="M0 -42c0 92 116 174 213 174c62 0 112 -33 112 -92c0 -88 -109 -173 -213 -173c-81 0 -112 48 -112 91z" />
      </g>
      <g id="E886-b138e71y">
         <path transform="scale(1,-1)" d="M158 224c55 0 94 -37 94 -91c0 -75 -64 -138 -142 -138c-67 0 -110 48 -110 126c0 108 71 244 193 244c50 0 86 -27 86 -64c0 -26 -17 -43 -43 -43c-23 0 -41 15 -41 36c0 10 4 19 12 28c3 4 4 5 4 8c0 5 -8 9 -18 9c-55 0 -82 -96 -93 -136c20 16 34 21 58 21zM136 193 c-50 0 -58 -83 -58 -119s11 -55 33 -55c47 0 58 89 58 123c0 33 -12 51 -33 51z" />
      </g>
   </defs>
   <style type="text/css">#b138e71y g.ending, #b138e71y g.fing, #b138e71y g.reh, #b138e71y g.tempo {font-weight:bold;}#b138e71y g.dir, #b138e71y g.dynam, #b138e71y g.mNum {font-style:italic;}#b138e71y g.label {font-weight:normal;}#b138e71y ellipse, #b138e71y path, #b138e71y polygon, #b138e71y polyline, #b138e71y rect {stroke:currentColor}#b138e71y g.cursor {fill:dodgerblue; color:dodgerblue;}#b138e71y g.cursor.chord {fill:limegreen; color:limegreen;}</style>
   <svg class="definition-scale" color="black" font-family="Times, serif" viewBox="0 0 2990 2000">
      <g class="page-margin" transform="translate(100, 100)">
         <g id="canjr2" class="mdiv pageMilestone" />
         <g id="dhzthv9" class="score pageMilestone" />
         <g id="o1jj0z59" class="system">
            <g id="q1043pny" class="section systemMilestone" />
            <g id="r2l9wso" class="measure">
               <g id="acg675o" class="staff">
                  <path d="M0 540 L2791 540" stroke-width="13" />
                  <path d="M0 720 L2791 720" stroke-width="13" />
                  <path d="M0 900 L2791 900" stroke-width="13" />
                  <path d="M0 1080 L2791 1080" stroke-width="13" />
                  <path d="M0 1260 L2791 1260" stroke-width="13" />
                  <g id="hm5kw2j" class="clef">
                     <use href="#E050-b138e71y" transform="translate(90, 1080) scale(0.72, 0.72)" />
                  </g>
                  <g id="ith6gyh" class="keySig" />
                  <g id="b1xakcy0" class="layer">
                     <g id="c13y955b" class="tuplet">
                        <g id="x1rfrnc8" class="tupletNum">
                           <use href="#E886-b138e71y" transform="translate(1647, 313) scale(0.72, 0.72)" />
                        </g>
                        <g id="w11oywrv" class="tupletBracket">
                           <polyline stroke-width="18" stroke-linecap="butt" stroke-linejoin="miter" fill="none" points="829,313 829,180 1602,180 " />
                           <polyline stroke-width="18" stroke-linecap="butt" stroke-linejoin="miter" fill="none" points="2665,313 2665,180 1892,180 " />
                        </g>
                        <g id="d3gxiuo" class="beam">
                           <polygon points="1035,360 2673,360 2673,450 1035,450" />
                           <polygon points="1035,495 1368,495 1368,585 1035,585" />
                           <polygon points="1368,495 1692,495 1692,585 1368,585" />
                           <polygon points="1692,495 2016,495 2016,585 1692,585" />
                           <polygon points="2016,495 2340,495 2340,585 2016,585" />
                           <polygon points="2340,495 2673,495 2673,585 2340,585" />
                           <g id="n0" class="note">
                              <g class="notehead">
                                 <use href="#E0A4-b138e71y" transform="translate(820, 990) scale(0.72, 0.72)" />
                              </g>
                              <g id="y1a6uqlw" class="stem">
                                 <path d="M1044 962 L1044 378" stroke-width="18" />
                              </g>
                           </g>
                           <g id="n1" class="note">
                              <g class="notehead">
                                 <use href="#E0A4-b138e71y" transform="translate(1144, 990) scale(0.72, 0.72)" />
                              </g>
                              <g id="zs58uil" class="stem">
                                 <path d="M1368 962 L1368 378" stroke-width="18" />
                              </g>
                           </g>
                           <g id="n2" class="note">
                              <g class="notehead">
                                 <use href="#E0A4-b138e71y" transform="translate(1468, 990) scale(0.72, 0.72)" />
                              </g>
                              <g id="a15q4mwr" class="stem">
                                 <path d="M1692 962 L1692 378" stroke-width="18" />
                              </g>
                           </g>
                           <g id="n3" class="note">
                              <g class="notehead">
                                 <use href="#E0A4-b138e71y" transform="translate(1792, 990) scale(0.72, 0.72)" />
                              </g>
                              <g id="btx964q" class="stem">
                                 <path d="M2016 962 L2016 378" stroke-width="18" />
                              </g>
                           </g>
                           <g id="n4" class="note">
                              <g class="notehead">
                                 <use href="#E0A4-b138e71y" transform="translate(2116, 990) scale(0.72, 0.72)" />
                              </g>
                              <g id="cryoz65" class="stem">
                                 <path d="M2340 962 L2340 378" stroke-width="18" />
                              </g>
                           </g>
                           <g id="n5" class="note">
                              <g class="notehead">
                                 <use href="#E0A4-b138e71y" transform="translate(2440, 990) scale(0.72, 0.72)" />
                              </g>
                              <g id="de56j5q" class="stem">
                                 <path d="M2664 962 L2664 378" stroke-width="18" />
                              </g>
                           </g>
                        </g>
                     </g>
                  </g>
               </g>
               <g id="zfr7nm4" class="barLine">
                  <path d="M2778 540 L2778 1260" stroke-width="27" />
               </g>
            </g>
            <g id="r10qjtqh" class="systemMilestoneEnd q1043pny" />
         </g>
         <g id="s1mu7q0u" class="pageMilestoneEnd dhzthv9" />
         <g id="tcm0paz" class="pageMilestoneEnd canjr2" />
      </g>
   </svg>
</svg>
