<svg id="m1p66jmd" viewBox="0 0 246 94" width="376" height="144" role="img" xmlns="http://www.w3.org/2000/svg"><title>Armadura con 2 bemoles en clave de sol: Si♭, Mi♭. Bajo cada alteración está escrito su nombre.</title>
   <defs>
      <g id="E050-m1p66jmd">
         <path transform="scale(1,-1)" d="M420 -206l-58 329c-59 -14 -104 -63 -104 -124c0 -49 22 -75 61 -99c12 -8 22 -13 22 -22s-9 -13 -17 -13c-80 0 -135 96 -135 166c0 94 62 190 153 217c-7 41 -14 88 -23 142c-15 -15 -31 -29 -48 -44c-88 -76 -174 -185 -174 -307c0 -151 122 -251 265 -251 c19 0 38 2 58 6zM332 822c-8 -31 -11 -65 -11 -102c0 -42 5 -81 11 -121c69 68 146 146 146 250c0 69 -24 118 -39 118c-52 0 -98 -105 -107 -145zM562 -21c0 89 -65 150 -155 150c7 -44 34 -203 55 -323c71 29 100 102 100 173zM122 -513c0 66 45 123 115 123 c75 0 116 -57 116 -111c0 -64 -47 -104 -94 -111c-3 -1 -5 -2 -5 -4c0 -1 2 -2 3 -3c2 0 23 -5 47 -5c101 0 154 55 154 159c0 53 -11 123 -30 219c-23 -4 -50 -7 -79 -7c-186 0 -349 147 -349 334c0 200 126 321 217 406c21 17 73 70 74 71c-17 112 -22 161 -22 215 c0 84 18 212 82 288c33 39 64 51 71 51c18 0 47 -35 71 -86c16 -36 44 -110 44 -201c0 -159 -73 -284 -179 -395c9 -56 19 -115 29 -175c146 0 253 -102 253 -253c0 -103 -73 -205 -171 -237c6 -39 12 -69 15 -89c10 -57 16 -102 16 -141c0 -63 -14 -129 -68 -167 c-36 -22 -77 -34 -124 -34c-135 0 -186 87 -186 153z" />
      </g>
      <g id="E260-m1p66jmd">
         <path transform="scale(1,-1)" d="M132 40v11c0 21 -3 55 -39 55c-40 0 -55 -29 -57 -38l-3 -195c58 46 99 88 99 167zM120 155c59 0 83 -49 83 -101c0 -103 -90 -185 -176 -228c-2 -1 -6 -2 -8 -2c-8 0 -14 6 -14 14l-5 601c0 8 6 14 14 14h12c8 0 14 -6 14 -14l-4 -321c5 6 34 37 84 37z" />
      </g>
   </defs>
   <style type="text/css">#m1p66jmd g.ending, #m1p66jmd g.fing, #m1p66jmd g.reh, #m1p66jmd g.tempo {font-weight:bold;}#m1p66jmd g.dir, #m1p66jmd g.dynam, #m1p66jmd g.mNum {font-style:italic;}#m1p66jmd g.label {font-weight:normal;}#m1p66jmd ellipse, #m1p66jmd path, #m1p66jmd polygon, #m1p66jmd polyline, #m1p66jmd rect {stroke:currentColor}#m1p66jmd g.cursor {fill:dodgerblue; color:dodgerblue;}#m1p66jmd g.cursor.chord {fill:limegreen; color:limegreen;}</style>
   <svg class="definition-scale" color="black" font-family="Times, serif" viewBox="0 0 6150 2352">
      <g class="page-margin" transform="translate(100, 100)">
         <g id="n7fzqr9" class="mdiv pageMilestone" />
         <g id="okb72ph" class="score pageMilestone" />
         <g id="t1ez67ok" class="system">
            <g id="c1y3tf1m" class="section systemMilestone" />
            <g id="d1644h6v" class="measure">
               <g id="m1w9mckt" class="staff">
                  <path d="M0 540 L5950 540" stroke-width="13" />
                  <path d="M0 720 L5950 720" stroke-width="13" />
                  <path d="M0 900 L5950 900" stroke-width="13" />
                  <path d="M0 1080 L5950 1080" stroke-width="13" />
                  <path d="M0 1260 L5950 1260" stroke-width="13" />
                  <g id="nxoxzd1" class="clef">
                     <use href="#E050-m1p66jmd" transform="translate(90, 1080) scale(0.72, 0.72)" />
                  </g>
                  <g id="o14bdceh" class="keySig">
                     <g id="p2180od" class="keyAccid">
                        <use href="#E260-m1p66jmd" transform="translate(730, 900) scale(0.72, 0.72)" />
                     </g>
                     <g id="q1hv5mpo" class="keyAccid">
                        <use href="#E260-m1p66jmd" transform="translate(1450, 630) scale(0.72, 0.72)" />
                     </g>
                  </g>
                  <g id="nufvtbr" class="layer">
                     <g id="ofm1aii" class="space" />
                  </g>
               </g>
               <g id="l46gvso" class="barLine" />
            </g>
            <g id="wdchgxr" class="systemMilestoneEnd c1y3tf1m" />
         </g>
         <g id="x1u1mejn" class="pageMilestoneEnd okb72ph" />
         <g id="ytuhyuo" class="pageMilestoneEnd n7fzqr9" />
      </g>
   <g class="tm-etiquetas" font-family="Arial, Helvetica, sans-serif" font-weight="700" font-size="300" text-anchor="middle"><text x="815" y="2052" fill="#1a1a1a">si</text><text x="1535" y="2052" fill="#1a1a1a">mi</text></g></svg>
</svg>
