<svg id="a1ryp7ca" viewBox="0 0 550 80" width="840" height="122" role="img" xmlns="http://www.w3.org/2000/svg"><title>Escala oriental según Persichetti de Do, con las alteraciones escritas junto a cada nota: Do, Re♭, Mi, Fa, Sol♭, La, Si♭, Do.</title>
   <defs>
      <g id="E050-a1ryp7ca">
         <path transform="scale(1,-1)" d="M420 -206l-58 329c-59 -14 -104 -63 -104 -124c0 -49 22 -75 61 -99c12 -8 22 -13 22 -22s-9 -13 -17 -13c-80 0 -135 96 -135 166c0 94 62 190 153 217c-7 41 -14 88 -23 142c-15 -15 -31 -29 -48 -44c-88 -76 -174 -185 -174 -307c0 -151 122 -251 265 -251 c19 0 38 2 58 6zM332 822c-8 -31 -11 -65 -11 -102c0 -42 5 -81 11 -121c69 68 146 146 146 250c0 69 -24 118 -39 118c-52 0 -98 -105 -107 -145zM562 -21c0 89 -65 150 -155 150c7 -44 34 -203 55 -323c71 29 100 102 100 173zM122 -513c0 66 45 123 115 123 c75 0 116 -57 116 -111c0 -64 -47 -104 -94 -111c-3 -1 -5 -2 -5 -4c0 -1 2 -2 3 -3c2 0 23 -5 47 -5c101 0 154 55 154 159c0 53 -11 123 -30 219c-23 -4 -50 -7 -79 -7c-186 0 -349 147 -349 334c0 200 126 321 217 406c21 17 73 70 74 71c-17 112 -22 161 -22 215 c0 84 18 212 82 288c33 39 64 51 71 51c18 0 47 -35 71 -86c16 -36 44 -110 44 -201c0 -159 -73 -284 -179 -395c9 -56 19 -115 29 -175c146 0 253 -102 253 -253c0 -103 -73 -205 -171 -237c6 -39 12 -69 15 -89c10 -57 16 -102 16 -141c0 -63 -14 -129 -68 -167 c-36 -22 -77 -34 -124 -34c-135 0 -186 87 -186 153z" />
      </g>
      <g id="E0A2-a1ryp7ca">
         <path transform="scale(1,-1)" d="M195 -102c41 0 75 8 75 57c0 25 -18 89 -32 116s-32 33 -60 33c-15 0 -31 -2 -43 -6c-24 -8 -34 -24 -32 -51c1 -27 19 -91 32 -116s32 -33 60 -33zM187 136c138 0 186 -70 186 -135s-48 -135 -186 -135s-187 70 -187 135s49 135 187 135z" />
      </g>
      <g id="E260-a1ryp7ca">
         <path transform="scale(1,-1)" d="M132 40v11c0 21 -3 55 -39 55c-40 0 -55 -29 -57 -38l-3 -195c58 46 99 88 99 167zM120 155c59 0 83 -49 83 -101c0 -103 -90 -185 -176 -228c-2 -1 -6 -2 -8 -2c-8 0 -14 6 -14 14l-5 601c0 8 6 14 14 14h12c8 0 14 -6 14 -14l-4 -321c5 6 34 37 84 37z" />
      </g>
   </defs>
   <style type="text/css">#a1ryp7ca g.ending, #a1ryp7ca g.fing, #a1ryp7ca g.reh, #a1ryp7ca g.tempo {font-weight:bold;}#a1ryp7ca g.dir, #a1ryp7ca g.dynam, #a1ryp7ca g.mNum {font-style:italic;}#a1ryp7ca g.label {font-weight:normal;}#a1ryp7ca ellipse, #a1ryp7ca path, #a1ryp7ca polygon, #a1ryp7ca polyline, #a1ryp7ca rect {stroke:currentColor}#a1ryp7ca g.cursor {fill:dodgerblue; color:dodgerblue;}#a1ryp7ca g.cursor.chord {fill:limegreen; color:limegreen;}</style>
   <svg class="definition-scale" color="black" font-family="Times, serif" viewBox="0 0 13740 2000">
      <g class="page-margin" transform="translate(100, 100)">
         <g id="by8tvjt" class="mdiv pageMilestone" />
         <g id="c1huf61p" class="score pageMilestone" />
         <g id="q11dyhbs" class="system">
            <g id="p1bopxil" class="section systemMilestone" />
            <g id="qrfckpq" class="measure">
               <g id="zw7dlgv" class="staff">
                  <path d="M0 540 L13540 540" stroke-width="13" />
                  <path d="M0 720 L13540 720" stroke-width="13" />
                  <path d="M0 900 L13540 900" stroke-width="13" />
                  <path d="M0 1080 L13540 1080" stroke-width="13" />
                  <path d="M0 1260 L13540 1260" stroke-width="13" />
                  <g id="jtvzh57" class="clef">
                     <use href="#E050-a1ryp7ca" transform="translate(90, 1080) scale(0.72, 0.72)" />
                  </g>
                  <g id="k1b6b7yp" class="keySig" />
                  <g class="ledgerLines below">
                     <path d="M772 1440 L1136 1440" stroke-width="22" />
                  </g>
                  <g id="a13boygr" class="layer">
                     <g id="n0" class="note">
                        <g class="notehead">
                           <use href="#E0A2-a1ryp7ca" transform="translate(820, 1440) scale(0.72, 0.72)" />
                        </g>
                     </g>
                     <g id="n1" class="note">
                        <g class="notehead">
                           <use href="#E0A2-a1ryp7ca" transform="translate(2410, 1350) scale(0.72, 0.72)" />
                        </g>
                        <g id="d1wbeqfh" class="accid">
                           <use href="#E260-a1ryp7ca" transform="translate(2219, 1350) scale(0.72, 0.72)" />
                        </g>
                     </g>
                     <g id="n2" class="note">
                        <g class="notehead">
                           <use href="#E0A2-a1ryp7ca" transform="translate(4000, 1260) scale(0.72, 0.72)" />
                        </g>
                     </g>
                     <g id="n3" class="note">
                        <g class="notehead">
                           <use href="#E0A2-a1ryp7ca" transform="translate(5590, 1170) scale(0.72, 0.72)" />
                        </g>
                     </g>
                     <g id="n4" class="note">
                        <g class="notehead">
                           <use href="#E0A2-a1ryp7ca" transform="translate(7180, 1080) scale(0.72, 0.72)" />
                        </g>
                        <g id="hfo1uz5" class="accid">
                           <use href="#E260-a1ryp7ca" transform="translate(6989, 1080) scale(0.72, 0.72)" />
                        </g>
                     </g>
                     <g id="n5" class="note">
                        <g class="notehead">
                           <use href="#E0A2-a1ryp7ca" transform="translate(8770, 990) scale(0.72, 0.72)" />
                        </g>
                     </g>
                     <g id="n6" class="note">
                        <g class="notehead">
                           <use href="#E0A2-a1ryp7ca" transform="translate(10360, 900) scale(0.72, 0.72)" />
                        </g>
                        <g id="k1nlz7a7" class="accid">
                           <use href="#E260-a1ryp7ca" transform="translate(10169, 900) scale(0.72, 0.72)" />
                        </g>
                     </g>
                     <g id="n7" class="note">
                        <g class="notehead">
                           <use href="#E0A2-a1ryp7ca" transform="translate(11950, 810) scale(0.72, 0.72)" />
                        </g>
                     </g>
                  </g>
               </g>
               <g id="y1mumayi" class="barLine" />
            </g>
            <g id="tb2d0u5" class="systemMilestoneEnd p1bopxil" />
         </g>
         <g id="uce87xm" class="pageMilestoneEnd c1huf61p" />
         <g id="vl9voa0" class="pageMilestoneEnd by8tvjt" />
      </g>
   </svg>
</svg>
