<svg id="ipwtg0a" viewBox="0 0 581 80" width="888" height="122" role="img" xmlns="http://www.w3.org/2000/svg"><title>Fa♯ menor dórica con armadura de 3 sostenidos: Fa♯, Sol♯, La, Si, Do♯, Re♯, Mi, Fa♯. En rojo, la nota que cambia respecto a la escala menor natural: Re♯.</title>
   <defs>
      <g id="E050-ipwtg0a">
         <path transform="scale(1,-1)" d="M420 -206l-58 329c-59 -14 -104 -63 -104 -124c0 -49 22 -75 61 -99c12 -8 22 -13 22 -22s-9 -13 -17 -13c-80 0 -135 96 -135 166c0 94 62 190 153 217c-7 41 -14 88 -23 142c-15 -15 -31 -29 -48 -44c-88 -76 -174 -185 -174 -307c0 -151 122 -251 265 -251 c19 0 38 2 58 6zM332 822c-8 -31 -11 -65 -11 -102c0 -42 5 -81 11 -121c69 68 146 146 146 250c0 69 -24 118 -39 118c-52 0 -98 -105 -107 -145zM562 -21c0 89 -65 150 -155 150c7 -44 34 -203 55 -323c71 29 100 102 100 173zM122 -513c0 66 45 123 115 123 c75 0 116 -57 116 -111c0 -64 -47 -104 -94 -111c-3 -1 -5 -2 -5 -4c0 -1 2 -2 3 -3c2 0 23 -5 47 -5c101 0 154 55 154 159c0 53 -11 123 -30 219c-23 -4 -50 -7 -79 -7c-186 0 -349 147 -349 334c0 200 126 321 217 406c21 17 73 70 74 71c-17 112 -22 161 -22 215 c0 84 18 212 82 288c33 39 64 51 71 51c18 0 47 -35 71 -86c16 -36 44 -110 44 -201c0 -159 -73 -284 -179 -395c9 -56 19 -115 29 -175c146 0 253 -102 253 -253c0 -103 -73 -205 -171 -237c6 -39 12 -69 15 -89c10 -57 16 -102 16 -141c0 -63 -14 -129 -68 -167 c-36 -22 -77 -34 -124 -34c-135 0 -186 87 -186 153z" />
      </g>
      <g id="E262-ipwtg0a">
         <path transform="scale(1,-1)" d="M78 74v-166l89 19v165zM233 105l-38 -7v-165l33 7h2c8 0 14 -6 14 -14v-59c0 -6 -5 -13 -11 -14l-38 -7v-147h-28v141l-89 -18v-155h-28v149l-33 -7h-3c-8 0 -14 6 -14 14v58c0 6 5 13 11 14l39 8v165l-33 -7h-3c-8 0 -14 6 -14 14v58c0 6 5 13 11 14l39 8v147h28v-141 l89 18v155h28v-149l33 7h2c8 0 14 -6 14 -14v-59c0 -6 -5 -13 -11 -14z" />
      </g>
      <g id="E0A2-ipwtg0a">
         <path transform="scale(1,-1)" d="M195 -102c41 0 75 8 75 57c0 25 -18 89 -32 116s-32 33 -60 33c-15 0 -31 -2 -43 -6c-24 -8 -34 -24 -32 -51c1 -27 19 -91 32 -116s32 -33 60 -33zM187 136c138 0 186 -70 186 -135s-48 -135 -186 -135s-187 70 -187 135s49 135 187 135z" />
      </g>
   </defs>
   <style type="text/css">#ipwtg0a g.ending, #ipwtg0a g.fing, #ipwtg0a g.reh, #ipwtg0a g.tempo {font-weight:bold;}#ipwtg0a g.dir, #ipwtg0a g.dynam, #ipwtg0a g.mNum {font-style:italic;}#ipwtg0a g.label {font-weight:normal;}#ipwtg0a ellipse, #ipwtg0a path, #ipwtg0a polygon, #ipwtg0a polyline, #ipwtg0a rect {stroke:currentColor}#ipwtg0a g.cursor {fill:dodgerblue; color:dodgerblue;}#ipwtg0a g.cursor.chord {fill:limegreen; color:limegreen;}</style>
   <svg class="definition-scale" color="black" font-family="Times, serif" viewBox="0 0 14510 2000">
      <g class="page-margin" transform="translate(100, 100)">
         <g id="juo6tzn" class="mdiv pageMilestone" />
         <g id="kdl60a7" class="score pageMilestone" />
         <g id="x1tttx6p" class="system">
            <g id="y1aknpvp" class="section systemMilestone" />
            <g id="z1km1akm" class="measure">
               <g id="i1dq1ocb" class="staff">
                  <path d="M0 540 L14319 540" stroke-width="13" />
                  <path d="M0 720 L14319 720" stroke-width="13" />
                  <path d="M0 900 L14319 900" stroke-width="13" />
                  <path d="M0 1080 L14319 1080" stroke-width="13" />
                  <path d="M0 1260 L14319 1260" stroke-width="13" />
                  <g id="ma4g8mn" class="clef">
                     <use href="#E050-ipwtg0a" transform="translate(90, 1080) scale(0.72, 0.72)" />
                  </g>
                  <g id="n1gjaril" class="keySig">
                     <g id="oqyjkw4" class="keyAccid">
                        <use href="#E262-ipwtg0a" transform="translate(730, 540) scale(0.72, 0.72)" />
                     </g>
                     <g id="p1koskjk" class="keyAccid">
                        <use href="#E262-ipwtg0a" transform="translate(942, 810) scale(0.72, 0.72)" />
                     </g>
                     <g id="q1o8h2sn" class="keyAccid">
                        <use href="#E262-ipwtg0a" transform="translate(1154, 450) scale(0.72, 0.72)" />
                     </g>
                  </g>
                  <g id="j1jrtx6u" class="layer">
                     <g id="n0" class="note">
                        <g class="notehead">
                           <use href="#E0A2-ipwtg0a" transform="translate(1599, 1170) scale(0.72, 0.72)" />
                        </g>
                     </g>
                     <g id="n1" class="note">
                        <g class="notehead">
                           <use href="#E0A2-ipwtg0a" transform="translate(3189, 1080) scale(0.72, 0.72)" />
                        </g>
                     </g>
                     <g id="n2" class="note">
                        <g class="notehead">
                           <use href="#E0A2-ipwtg0a" transform="translate(4779, 990) scale(0.72, 0.72)" />
                        </g>
                     </g>
                     <g id="n3" class="note">
                        <g class="notehead">
                           <use href="#E0A2-ipwtg0a" transform="translate(6369, 900) scale(0.72, 0.72)" />
                        </g>
                     </g>
                     <g id="n4" class="note">
                        <g class="notehead">
                           <use href="#E0A2-ipwtg0a" transform="translate(7959, 810) scale(0.72, 0.72)" />
                        </g>
                     </g>
                     <g id="n5" class="note" color="#d00000" fill="#d00000">
                        <g class="notehead">
                           <use href="#E0A2-ipwtg0a" transform="translate(9549, 720) scale(0.72, 0.72)" />
                        </g>
                        <g id="q1n7a6d8" class="accid">
                           <use href="#E262-ipwtg0a" transform="translate(9329, 720) scale(0.72, 0.72)" />
                        </g>
                     </g>
                     <g id="n6" class="note">
                        <g class="notehead">
                           <use href="#E0A2-ipwtg0a" transform="translate(11139, 630) scale(0.72, 0.72)" />
                        </g>
                     </g>
                     <g id="n7" class="note">
                        <g class="notehead">
                           <use href="#E0A2-ipwtg0a" transform="translate(12729, 540) scale(0.72, 0.72)" />
                        </g>
                     </g>
                  </g>
               </g>
               <g id="hfcocan" class="barLine" />
            </g>
            <g id="a2ct4u4" class="systemMilestoneEnd y1aknpvp" />
         </g>
         <g id="b1w1nh5o" class="pageMilestoneEnd kdl60a7" />
         <g id="c1m4fygt" class="pageMilestoneEnd juo6tzn" />
      </g>
   </svg>
</svg>
