<svg id="h12e4tge" viewBox="0 0 495 80" width="756" height="122" role="img" xmlns="http://www.w3.org/2000/svg"><title>Escala de tonos enteros de Si♭, con las alteraciones escritas junto a cada nota: Si♭, Do, Re, Mi, Sol♭, La♭, Si♭.</title>
   <defs>
      <g id="E050-h12e4tge">
         <path transform="scale(1,-1)" d="M420 -206l-58 329c-59 -14 -104 -63 -104 -124c0 -49 22 -75 61 -99c12 -8 22 -13 22 -22s-9 -13 -17 -13c-80 0 -135 96 -135 166c0 94 62 190 153 217c-7 41 -14 88 -23 142c-15 -15 -31 -29 -48 -44c-88 -76 -174 -185 -174 -307c0 -151 122 -251 265 -251 c19 0 38 2 58 6zM332 822c-8 -31 -11 -65 -11 -102c0 -42 5 -81 11 -121c69 68 146 146 146 250c0 69 -24 118 -39 118c-52 0 -98 -105 -107 -145zM562 -21c0 89 -65 150 -155 150c7 -44 34 -203 55 -323c71 29 100 102 100 173zM122 -513c0 66 45 123 115 123 c75 0 116 -57 116 -111c0 -64 -47 -104 -94 -111c-3 -1 -5 -2 -5 -4c0 -1 2 -2 3 -3c2 0 23 -5 47 -5c101 0 154 55 154 159c0 53 -11 123 -30 219c-23 -4 -50 -7 -79 -7c-186 0 -349 147 -349 334c0 200 126 321 217 406c21 17 73 70 74 71c-17 112 -22 161 -22 215 c0 84 18 212 82 288c33 39 64 51 71 51c18 0 47 -35 71 -86c16 -36 44 -110 44 -201c0 -159 -73 -284 -179 -395c9 -56 19 -115 29 -175c146 0 253 -102 253 -253c0 -103 -73 -205 -171 -237c6 -39 12 -69 15 -89c10 -57 16 -102 16 -141c0 -63 -14 -129 -68 -167 c-36 -22 -77 -34 -124 -34c-135 0 -186 87 -186 153z" />
      </g>
      <g id="E0A2-h12e4tge">
         <path transform="scale(1,-1)" d="M195 -102c41 0 75 8 75 57c0 25 -18 89 -32 116s-32 33 -60 33c-15 0 -31 -2 -43 -6c-24 -8 -34 -24 -32 -51c1 -27 19 -91 32 -116s32 -33 60 -33zM187 136c138 0 186 -70 186 -135s-48 -135 -186 -135s-187 70 -187 135s49 135 187 135z" />
      </g>
      <g id="E260-h12e4tge">
         <path transform="scale(1,-1)" d="M132 40v11c0 21 -3 55 -39 55c-40 0 -55 -29 -57 -38l-3 -195c58 46 99 88 99 167zM120 155c59 0 83 -49 83 -101c0 -103 -90 -185 -176 -228c-2 -1 -6 -2 -8 -2c-8 0 -14 6 -14 14l-5 601c0 8 6 14 14 14h12c8 0 14 -6 14 -14l-4 -321c5 6 34 37 84 37z" />
      </g>
   </defs>
   <style type="text/css">#h12e4tge g.ending, #h12e4tge g.fing, #h12e4tge g.reh, #h12e4tge g.tempo {font-weight:bold;}#h12e4tge g.dir, #h12e4tge g.dynam, #h12e4tge g.mNum {font-style:italic;}#h12e4tge g.label {font-weight:normal;}#h12e4tge ellipse, #h12e4tge path, #h12e4tge polygon, #h12e4tge polyline, #h12e4tge rect {stroke:currentColor}#h12e4tge g.cursor {fill:dodgerblue; color:dodgerblue;}#h12e4tge g.cursor.chord {fill:limegreen; color:limegreen;}</style>
   <svg class="definition-scale" color="black" font-family="Times, serif" viewBox="0 0 12360 2000">
      <g class="page-margin" transform="translate(100, 100)">
         <g id="is45r9q" class="mdiv pageMilestone" />
         <g id="j1m5w1h" class="score pageMilestone" />
         <g id="x13uo807" class="system">
            <g id="w1fn7a93" class="section systemMilestone" />
            <g id="xq35xff" class="measure">
               <g id="g1b89cky" class="staff">
                  <path d="M0 540 L12167 540" stroke-width="13" />
                  <path d="M0 720 L12167 720" stroke-width="13" />
                  <path d="M0 900 L12167 900" stroke-width="13" />
                  <path d="M0 1080 L12167 1080" stroke-width="13" />
                  <path d="M0 1260 L12167 1260" stroke-width="13" />
                  <g id="p4tnb8" class="clef">
                     <use href="#E050-h12e4tge" transform="translate(90, 1080) scale(0.72, 0.72)" />
                  </g>
                  <g id="qtxblf6" class="keySig" />
                  <g class="ledgerLines below">
                     <path d="M989 1440 L1353 1440" stroke-width="22" />
                     <path d="M2579 1440 L2943 1440" stroke-width="22" />
                  </g>
                  <g id="hzxr86h" class="layer">
                     <g id="n0" class="note">
                        <g class="notehead">
                           <use href="#E0A2-h12e4tge" transform="translate(1037, 1530) scale(0.72, 0.72)" />
                        </g>
                        <g id="j1el0rxu" class="accid">
                           <use href="#E260-h12e4tge" transform="translate(820, 1530) scale(0.72, 0.72)" />
                        </g>
                     </g>
                     <g id="n1" class="note">
                        <g class="notehead">
                           <use href="#E0A2-h12e4tge" transform="translate(2627, 1440) scale(0.72, 0.72)" />
                        </g>
                     </g>
                     <g id="n2" class="note">
                        <g class="notehead">
                           <use href="#E0A2-h12e4tge" transform="translate(4217, 1350) scale(0.72, 0.72)" />
                        </g>
                     </g>
                     <g id="n3" class="note">
                        <g class="notehead">
                           <use href="#E0A2-h12e4tge" transform="translate(5807, 1260) scale(0.72, 0.72)" />
                        </g>
                     </g>
                     <g id="n4" class="note">
                        <g class="notehead">
                           <use href="#E0A2-h12e4tge" transform="translate(7397, 1080) scale(0.72, 0.72)" />
                        </g>
                        <g id="o1jzlxjr" class="accid">
                           <use href="#E260-h12e4tge" transform="translate(7206, 1080) scale(0.72, 0.72)" />
                        </g>
                     </g>
                     <g id="n5" class="note">
                        <g class="notehead">
                           <use href="#E0A2-h12e4tge" transform="translate(8987, 990) scale(0.72, 0.72)" />
                        </g>
                        <g id="q1v2co0i" class="accid">
                           <use href="#E260-h12e4tge" transform="translate(8796, 990) scale(0.72, 0.72)" />
                        </g>
                     </g>
                     <g id="n6" class="note">
                        <g class="notehead">
                           <use href="#E0A2-h12e4tge" transform="translate(10577, 900) scale(0.72, 0.72)" />
                        </g>
                        <g id="s12tolp5" class="accid">
                           <use href="#E260-h12e4tge" transform="translate(10386, 900) scale(0.72, 0.72)" />
                        </g>
                     </g>
                  </g>
               </g>
               <g id="f1yn4xok" class="barLine" />
            </g>
            <g id="a10drw9" class="systemMilestoneEnd w1fn7a93" />
         </g>
         <g id="bcy3lpo" class="pageMilestoneEnd j1m5w1h" />
         <g id="c15ai0w" class="pageMilestoneEnd is45r9q" />
      </g>
   </svg>
</svg>
