<svg id="s1264uf" viewBox="0 0 539 80" width="823" height="122" role="img" xmlns="http://www.w3.org/2000/svg"><title>Si menor melódica, con las alteraciones escritas junto a cada nota: ascendente: Si, Do♯, Re, Mi, Fa♯, Sol♯, La♯, Si; descendente: La♮, Sol♮, Fa♯, Mi, Re, Do♯, Si. En rojo, las notas que cambian respecto a la escala menor natural: Sol♯, La♯, La♮, Sol♮.</title>
   <defs>
      <g id="E050-s1264uf">
         <path transform="scale(1,-1)" d="M420 -206l-58 329c-59 -14 -104 -63 -104 -124c0 -49 22 -75 61 -99c12 -8 22 -13 22 -22s-9 -13 -17 -13c-80 0 -135 96 -135 166c0 94 62 190 153 217c-7 41 -14 88 -23 142c-15 -15 -31 -29 -48 -44c-88 -76 -174 -185 -174 -307c0 -151 122 -251 265 -251 c19 0 38 2 58 6zM332 822c-8 -31 -11 -65 -11 -102c0 -42 5 -81 11 -121c69 68 146 146 146 250c0 69 -24 118 -39 118c-52 0 -98 -105 -107 -145zM562 -21c0 89 -65 150 -155 150c7 -44 34 -203 55 -323c71 29 100 102 100 173zM122 -513c0 66 45 123 115 123 c75 0 116 -57 116 -111c0 -64 -47 -104 -94 -111c-3 -1 -5 -2 -5 -4c0 -1 2 -2 3 -3c2 0 23 -5 47 -5c101 0 154 55 154 159c0 53 -11 123 -30 219c-23 -4 -50 -7 -79 -7c-186 0 -349 147 -349 334c0 200 126 321 217 406c21 17 73 70 74 71c-17 112 -22 161 -22 215 c0 84 18 212 82 288c33 39 64 51 71 51c18 0 47 -35 71 -86c16 -36 44 -110 44 -201c0 -159 -73 -284 -179 -395c9 -56 19 -115 29 -175c146 0 253 -102 253 -253c0 -103 -73 -205 -171 -237c6 -39 12 -69 15 -89c10 -57 16 -102 16 -141c0 -63 -14 -129 -68 -167 c-36 -22 -77 -34 -124 -34c-135 0 -186 87 -186 153z" />
      </g>
      <g id="E0A2-s1264uf">
         <path transform="scale(1,-1)" d="M195 -102c41 0 75 8 75 57c0 25 -18 89 -32 116s-32 33 -60 33c-15 0 -31 -2 -43 -6c-24 -8 -34 -24 -32 -51c1 -27 19 -91 32 -116s32 -33 60 -33zM187 136c138 0 186 -70 186 -135s-48 -135 -186 -135s-187 70 -187 135s49 135 187 135z" />
      </g>
      <g id="E262-s1264uf">
         <path transform="scale(1,-1)" d="M78 74v-166l89 19v165zM233 105l-38 -7v-165l33 7h2c8 0 14 -6 14 -14v-59c0 -6 -5 -13 -11 -14l-38 -7v-147h-28v141l-89 -18v-155h-28v149l-33 -7h-3c-8 0 -14 6 -14 14v58c0 6 5 13 11 14l39 8v165l-33 -7h-3c-8 0 -14 6 -14 14v58c0 6 5 13 11 14l39 8v147h28v-141 l89 18v155h28v-149l33 7h2c8 0 14 -6 14 -14v-59c0 -6 -5 -13 -11 -14z" />
      </g>
      <g id="E261-s1264uf">
         <path transform="scale(1,-1)" d="M28 -97l116 32v165l-116 -33v-164zM166 183c3 -2 5 -7 5 -11v-495h-27v175l-126 -35h-4c-8 0 -14 5 -14 13v495h28v-175l126 35c1 0 3 1 4 1c3 0 6 -1 8 -3z" />
      </g>
   </defs>
   <style type="text/css">#s1264uf g.ending, #s1264uf g.fing, #s1264uf g.reh, #s1264uf g.tempo {font-weight:bold;}#s1264uf g.dir, #s1264uf g.dynam, #s1264uf g.mNum {font-style:italic;}#s1264uf g.label {font-weight:normal;}#s1264uf ellipse, #s1264uf path, #s1264uf polygon, #s1264uf polyline, #s1264uf rect {stroke:currentColor}#s1264uf g.cursor {fill:dodgerblue; color:dodgerblue;}#s1264uf g.cursor.chord {fill:limegreen; color:limegreen;}</style>
   <svg class="definition-scale" color="black" font-family="Times, serif" viewBox="0 0 13470 2000">
      <g class="page-margin" transform="translate(100, 100)">
         <g id="t1yamd4k" class="mdiv pageMilestone" />
         <g id="u16f51e0" class="score pageMilestone" />
         <g id="s1foy6qg" class="system">
            <g id="h467x8x" class="section systemMilestone" />
            <g id="i1q3ozr9" class="measure">
               <g id="ru5wwjw" class="staff">
                  <path d="M0 540 L13270 540" stroke-width="13" />
                  <path d="M0 720 L13270 720" stroke-width="13" />
                  <path d="M0 900 L13270 900" stroke-width="13" />
                  <path d="M0 1080 L13270 1080" stroke-width="13" />
                  <path d="M0 1260 L13270 1260" stroke-width="13" />
                  <g id="s16f1e56" class="clef">
                     <use href="#E050-s1264uf" transform="translate(90, 1080) scale(0.72, 0.72)" />
                  </g>
                  <g id="t18lgbks" class="keySig" />
                  <g class="ledgerLines below">
                     <path d="M772 1440 L1136 1440" stroke-width="22" />
                     <path d="M1602 1440 L1966 1440" stroke-width="22" />
                     <path d="M11562 1440 L11926 1440" stroke-width="22" />
                     <path d="M12392 1440 L12756 1440" stroke-width="22" />
                  </g>
                  <g id="s1hegsnv" class="layer">
                     <g id="n0" class="note">
                        <g class="notehead">
                           <use href="#E0A2-s1264uf" transform="translate(820, 1530) scale(0.72, 0.72)" />
                        </g>
                     </g>
                     <g id="n1" class="note">
                        <g class="notehead">
                           <use href="#E0A2-s1264uf" transform="translate(1650, 1440) scale(0.72, 0.72)" />
                        </g>
                        <g id="v10xisnc" class="accid">
                           <use href="#E262-s1264uf" transform="translate(1404, 1440) scale(0.72, 0.72)" />
                        </g>
                     </g>
                     <g id="n2" class="note">
                        <g class="notehead">
                           <use href="#E0A2-s1264uf" transform="translate(2480, 1350) scale(0.72, 0.72)" />
                        </g>
                     </g>
                     <g id="n3" class="note">
                        <g class="notehead">
                           <use href="#E0A2-s1264uf" transform="translate(3310, 1260) scale(0.72, 0.72)" />
                        </g>
                     </g>
                     <g id="n4" class="note">
                        <g class="notehead">
                           <use href="#E0A2-s1264uf" transform="translate(4140, 1170) scale(0.72, 0.72)" />
                        </g>
                        <g id="zivrg9o" class="accid">
                           <use href="#E262-s1264uf" transform="translate(3920, 1170) scale(0.72, 0.72)" />
                        </g>
                     </g>
                     <g id="n5" class="note" color="#d00000" fill="#d00000">
                        <g class="notehead">
                           <use href="#E0A2-s1264uf" transform="translate(4970, 1080) scale(0.72, 0.72)" />
                        </g>
                        <g id="baxeq28" class="accid">
                           <use href="#E262-s1264uf" transform="translate(4750, 1080) scale(0.72, 0.72)" />
                        </g>
                     </g>
                     <g id="n6" class="note" color="#d00000" fill="#d00000">
                        <g class="notehead">
                           <use href="#E0A2-s1264uf" transform="translate(5800, 990) scale(0.72, 0.72)" />
                        </g>
                        <g id="d377r51" class="accid">
                           <use href="#E262-s1264uf" transform="translate(5580, 990) scale(0.72, 0.72)" />
                        </g>
                     </g>
                     <g id="n7" class="note">
                        <g class="notehead">
                           <use href="#E0A2-s1264uf" transform="translate(6630, 900) scale(0.72, 0.72)" />
                        </g>
                     </g>
                     <g id="n8" class="note" color="#d00000" fill="#d00000">
                        <g class="notehead">
                           <use href="#E0A2-s1264uf" transform="translate(7460, 990) scale(0.72, 0.72)" />
                        </g>
                        <g id="gp328wu" class="accid">
                           <use href="#E261-s1264uf" transform="translate(7292, 990) scale(0.72, 0.72)" />
                        </g>
                     </g>
                     <g id="n9" class="note" color="#d00000" fill="#d00000">
                        <g class="notehead">
                           <use href="#E0A2-s1264uf" transform="translate(8290, 1080) scale(0.72, 0.72)" />
                        </g>
                        <g id="i1qog9dx" class="accid">
                           <use href="#E261-s1264uf" transform="translate(8122, 1080) scale(0.72, 0.72)" />
                        </g>
                     </g>
                     <g id="n10" class="note">
                        <g class="notehead">
                           <use href="#E0A2-s1264uf" transform="translate(9120, 1170) scale(0.72, 0.72)" />
                        </g>
                     </g>
                     <g id="n11" class="note">
                        <g class="notehead">
                           <use href="#E0A2-s1264uf" transform="translate(9950, 1260) scale(0.72, 0.72)" />
                        </g>
                     </g>
                     <g id="n12" class="note">
                        <g class="notehead">
                           <use href="#E0A2-s1264uf" transform="translate(10780, 1350) scale(0.72, 0.72)" />
                        </g>
                     </g>
                     <g id="n13" class="note">
                        <g class="notehead">
                           <use href="#E0A2-s1264uf" transform="translate(11610, 1440) scale(0.72, 0.72)" />
                        </g>
                     </g>
                     <g id="n14" class="note">
                        <g class="notehead">
                           <use href="#E0A2-s1264uf" transform="translate(12440, 1530) scale(0.72, 0.72)" />
                        </g>
                     </g>
                  </g>
               </g>
               <g id="qd5i7gb" class="barLine" />
            </g>
            <g id="v1vzlm72" class="systemMilestoneEnd h467x8x" />
         </g>
         <g id="w1n7vk05" class="pageMilestoneEnd u16f51e0" />
         <g id="x1jpfce5" class="pageMilestoneEnd t1yamd4k" />
      </g>
   </svg>
</svg>
