<svg id="l1a9gymb" viewBox="0 0 314 132" width="480" height="202" role="img" xmlns="http://www.w3.org/2000/svg"><title>Segundo ejemplo de inversión de intervalo compuesto</title>
   <defs>
      <g id="E050-l1a9gymb">
         <path transform="scale(1,-1)" d="M420 -206l-58 329c-59 -14 -104 -63 -104 -124c0 -49 22 -75 61 -99c12 -8 22 -13 22 -22s-9 -13 -17 -13c-80 0 -135 96 -135 166c0 94 62 190 153 217c-7 41 -14 88 -23 142c-15 -15 -31 -29 -48 -44c-88 -76 -174 -185 -174 -307c0 -151 122 -251 265 -251 c19 0 38 2 58 6zM332 822c-8 -31 -11 -65 -11 -102c0 -42 5 -81 11 -121c69 68 146 146 146 250c0 69 -24 118 -39 118c-52 0 -98 -105 -107 -145zM562 -21c0 89 -65 150 -155 150c7 -44 34 -203 55 -323c71 29 100 102 100 173zM122 -513c0 66 45 123 115 123 c75 0 116 -57 116 -111c0 -64 -47 -104 -94 -111c-3 -1 -5 -2 -5 -4c0 -1 2 -2 3 -3c2 0 23 -5 47 -5c101 0 154 55 154 159c0 53 -11 123 -30 219c-23 -4 -50 -7 -79 -7c-186 0 -349 147 -349 334c0 200 126 321 217 406c21 17 73 70 74 71c-17 112 -22 161 -22 215 c0 84 18 212 82 288c33 39 64 51 71 51c18 0 47 -35 71 -86c16 -36 44 -110 44 -201c0 -159 -73 -284 -179 -395c9 -56 19 -115 29 -175c146 0 253 -102 253 -253c0 -103 -73 -205 -171 -237c6 -39 12 -69 15 -89c10 -57 16 -102 16 -141c0 -63 -14 -129 -68 -167 c-36 -22 -77 -34 -124 -34c-135 0 -186 87 -186 153z" />
      </g>
      <g id="E0A2-l1a9gymb">
         <path transform="scale(1,-1)" d="M195 -102c41 0 75 8 75 57c0 25 -18 89 -32 116s-32 33 -60 33c-15 0 -31 -2 -43 -6c-24 -8 -34 -24 -32 -51c1 -27 19 -91 32 -116s32 -33 60 -33zM187 136c138 0 186 -70 186 -135s-48 -135 -186 -135s-187 70 -187 135s49 135 187 135z" />
      </g>
   </defs>
   <style type="text/css">#l1a9gymb g.ending, #l1a9gymb g.fing, #l1a9gymb g.reh, #l1a9gymb g.tempo {font-weight:bold;}#l1a9gymb g.dir, #l1a9gymb g.dynam, #l1a9gymb g.mNum {font-style:italic;}#l1a9gymb g.label {font-weight:normal;}#l1a9gymb ellipse, #l1a9gymb path, #l1a9gymb polygon, #l1a9gymb polyline, #l1a9gymb rect {stroke:currentColor}#l1a9gymb g.cursor {fill:dodgerblue; color:dodgerblue;}#l1a9gymb g.cursor.chord {fill:limegreen; color:limegreen;}</style>
   <svg class="definition-scale" color="black" font-family="Times, serif" viewBox="0 -962 7850 3322">
      <g class="page-margin" transform="translate(100, 100)">
         <g id="m7uvlnm" class="mdiv pageMilestone" />
         <g id="n1llcu1b" class="score pageMilestone" />
         <g id="f1r58lk2" class="system">
            <g id="a1anbw8v" class="section systemMilestone" />
            <g id="b4gxwix" class="measure">
               <g id="k1fpejtj" class="staff">
                  <path d="M0 908 L4013 908" stroke-width="13" />
                  <path d="M0 1088 L4013 1088" stroke-width="13" />
                  <path d="M0 1268 L4013 1268" stroke-width="13" />
                  <path d="M0 1448 L4013 1448" stroke-width="13" />
                  <path d="M0 1628 L4013 1628" stroke-width="13" />
                  <g id="wyx4x9" class="clef">
                     <use href="#E050-l1a9gymb" transform="translate(90, 1448) scale(0.72, 0.72)" />
                  </g>
                  <g id="x4cw5bi" class="keySig" />
                  <g class="ledgerLines above">
                     <path d="M2362 728 L2726 728" stroke-width="22" />
                     <path d="M2362 548 L2726 548" stroke-width="22" />
                     <path d="M2362 368 L2726 368" stroke-width="22" />
                     <path d="M2362 188 L2726 188" stroke-width="22" />
                  </g>
                  <g id="l13a2yty" class="layer">
                     <g id="n0" class="note">
                        <g class="notehead">
                           <use href="#E0A2-l1a9gymb" transform="translate(820, 1088) scale(0.72, 0.72)" />
                        </g>
                     </g>
                     <g id="n1" class="note">
                        <g class="notehead">
                           <use href="#E0A2-l1a9gymb" transform="translate(2410, 98) scale(0.72, 0.72)" />
                        </g>
                     </g>
                  </g>
               </g>
               <g id="jcm1fpo" class="barLine">
                  <path d="M4000 908 L4000 1628" stroke-width="27" />
               </g>
            </g>
            <g id="o1scenwn" class="measure">
               <g id="xkcmnzk" class="staff">
                  <path d="M4013 908 L7653 908" stroke-width="13" />
                  <path d="M4013 1088 L7653 1088" stroke-width="13" />
                  <path d="M4013 1268 L7653 1268" stroke-width="13" />
                  <path d="M4013 1448 L7653 1448" stroke-width="13" />
                  <path d="M4013 1628 L7653 1628" stroke-width="13" />
                  <g class="ledgerLines below">
                     <path d="M5735 1808 L6099 1808" stroke-width="22" />
                     <path d="M5735 1988 L6099 1988" stroke-width="22" />
                  </g>
                  <g id="y6srp32" class="layer">
                     <g id="n2" class="note">
                        <g class="notehead">
                           <use href="#E0A2-l1a9gymb" transform="translate(4193, 1088) scale(0.72, 0.72)" />
                        </g>
                     </g>
                     <g id="n3" class="note">
                        <g class="notehead">
                           <use href="#E0A2-l1a9gymb" transform="translate(5783, 1988) scale(0.72, 0.72)" />
                        </g>
                     </g>
                  </g>
               </g>
               <g id="wikshem" class="barLine" />
            </g>
            <g id="ik2drb3" class="systemMilestoneEnd a1anbw8v" />
         </g>
         <g id="jrrijik" class="pageMilestoneEnd n1llcu1b" />
         <g id="k1gat2wl" class="pageMilestoneEnd m7uvlnm" />
      </g>
   <g transform="translate(100 100)"><g class="tm-etiquetas" font-family="Arial, Helvetica, sans-serif" font-weight="700" font-size="300" text-anchor="middle"><text x="2412" y="-462" fill="#1a1a1a" font-size="300">12ª Justa</text><text x="5785" y="-462" fill="#1a1a1a" font-size="300">11ª Justa</text></g></g></svg>
</svg>
