<svg id="w1bwbvf7" viewBox="0 0 113 82" width="173" height="125" role="img" xmlns="http://www.w3.org/2000/svg"><title>Armónico 14: Si♭ en el pentagrama</title>
   <defs>
      <g id="E050-w1bwbvf7">
         <path transform="scale(1,-1)" d="M420 -206l-58 329c-59 -14 -104 -63 -104 -124c0 -49 22 -75 61 -99c12 -8 22 -13 22 -22s-9 -13 -17 -13c-80 0 -135 96 -135 166c0 94 62 190 153 217c-7 41 -14 88 -23 142c-15 -15 -31 -29 -48 -44c-88 -76 -174 -185 -174 -307c0 -151 122 -251 265 -251 c19 0 38 2 58 6zM332 822c-8 -31 -11 -65 -11 -102c0 -42 5 -81 11 -121c69 68 146 146 146 250c0 69 -24 118 -39 118c-52 0 -98 -105 -107 -145zM562 -21c0 89 -65 150 -155 150c7 -44 34 -203 55 -323c71 29 100 102 100 173zM122 -513c0 66 45 123 115 123 c75 0 116 -57 116 -111c0 -64 -47 -104 -94 -111c-3 -1 -5 -2 -5 -4c0 -1 2 -2 3 -3c2 0 23 -5 47 -5c101 0 154 55 154 159c0 53 -11 123 -30 219c-23 -4 -50 -7 -79 -7c-186 0 -349 147 -349 334c0 200 126 321 217 406c21 17 73 70 74 71c-17 112 -22 161 -22 215 c0 84 18 212 82 288c33 39 64 51 71 51c18 0 47 -35 71 -86c16 -36 44 -110 44 -201c0 -159 -73 -284 -179 -395c9 -56 19 -115 29 -175c146 0 253 -102 253 -253c0 -103 -73 -205 -171 -237c6 -39 12 -69 15 -89c10 -57 16 -102 16 -141c0 -63 -14 -129 -68 -167 c-36 -22 -77 -34 -124 -34c-135 0 -186 87 -186 153z" />
      </g>
      <g id="E0FA-w1bwbvf7">
         <path transform="scale(1,-1)" d="M187 136c138 0 186 -70 186 -135s-48 -135 -186 -135s-187 70 -187 135s49 135 187 135z" />
      </g>
      <g id="E260-w1bwbvf7">
         <path transform="scale(1,-1)" d="M132 40v11c0 21 -3 55 -39 55c-40 0 -55 -29 -57 -38l-3 -195c58 46 99 88 99 167zM120 155c59 0 83 -49 83 -101c0 -103 -90 -185 -176 -228c-2 -1 -6 -2 -8 -2c-8 0 -14 6 -14 14l-5 601c0 8 6 14 14 14h12c8 0 14 -6 14 -14l-4 -321c5 6 34 37 84 37z" />
      </g>
   </defs>
   <style type="text/css">#w1bwbvf7 g.ending, #w1bwbvf7 g.fing, #w1bwbvf7 g.reh, #w1bwbvf7 g.tempo {font-weight:bold;}#w1bwbvf7 g.dir, #w1bwbvf7 g.dynam, #w1bwbvf7 g.mNum {font-style:italic;}#w1bwbvf7 g.label {font-weight:normal;}#w1bwbvf7 ellipse, #w1bwbvf7 path, #w1bwbvf7 polygon, #w1bwbvf7 polyline, #w1bwbvf7 rect {stroke:currentColor}#w1bwbvf7 g.cursor {fill:dodgerblue; color:dodgerblue;}#w1bwbvf7 g.cursor.chord {fill:limegreen; color:limegreen;}</style>
   <svg class="definition-scale" color="black" font-family="Times, serif" viewBox="0 0 2820 2050">
      <g class="page-margin" transform="translate(100, 100)">
         <g id="x17azm0h" class="mdiv pageMilestone" />
         <g id="ydensjq" class="score pageMilestone" />
         <g id="d12vac9s" class="system">
            <g id="lfrfktb" class="section systemMilestone" />
            <g id="mvsjd2k" class="measure">
               <g id="v18hntjh" class="staff">
                  <path d="M0 596 L2627 596" stroke-width="13" />
                  <path d="M0 776 L2627 776" stroke-width="13" />
                  <path d="M0 956 L2627 956" stroke-width="13" />
                  <path d="M0 1136 L2627 1136" stroke-width="13" />
                  <path d="M0 1316 L2627 1316" stroke-width="13" />
                  <g id="p1ixxxm3" class="clef">
                     <use href="#E050-w1bwbvf7" transform="translate(90, 1136) scale(0.72, 0.72)" />
                  </g>
                  <g id="quuttul" class="keySig" />
                  <g class="ledgerLines above">
                     <path d="M989 416 L1353 416" stroke-width="22" />
                  </g>
                  <g id="w4sq52f" class="layer">
                     <g id="n0" class="note">
                        <g class="notehead">
                           <use href="#E0FA-w1bwbvf7" transform="translate(1037, 326) scale(0.72, 0.72)" />
                        </g>
                        <g id="ycvuun2" class="accid">
                           <use href="#E260-w1bwbvf7" transform="translate(820, 326) scale(0.72, 0.72)" />
                        </g>
                     </g>
                  </g>
               </g>
               <g id="u1gdgdki" class="barLine" />
            </g>
            <g id="g1nydjd5" class="systemMilestoneEnd lfrfktb" />
         </g>
         <g id="h114de58" class="pageMilestoneEnd ydensjq" />
         <g id="izr6gqn" class="pageMilestoneEnd x17azm0h" />
      </g>
   </svg>
</svg>
