<svg id="nc53yt6" viewBox="0 0 588 192" width="898" height="293" role="img" xmlns="http://www.w3.org/2000/svg"><title>Los 16 primeros armónicos sobre Do 2 en un pentagrama doble: Do, Do, Sol, Do, Mi, Sol, Si bemol, Do, Re, Mi, Fa sostenido, Sol, La bemol, Si bemol, Si, Do</title>
   <defs>
      <g id="E050-nc53yt6">
         <path transform="scale(1,-1)" d="M420 -206l-58 329c-59 -14 -104 -63 -104 -124c0 -49 22 -75 61 -99c12 -8 22 -13 22 -22s-9 -13 -17 -13c-80 0 -135 96 -135 166c0 94 62 190 153 217c-7 41 -14 88 -23 142c-15 -15 -31 -29 -48 -44c-88 -76 -174 -185 -174 -307c0 -151 122 -251 265 -251 c19 0 38 2 58 6zM332 822c-8 -31 -11 -65 -11 -102c0 -42 5 -81 11 -121c69 68 146 146 146 250c0 69 -24 118 -39 118c-52 0 -98 -105 -107 -145zM562 -21c0 89 -65 150 -155 150c7 -44 34 -203 55 -323c71 29 100 102 100 173zM122 -513c0 66 45 123 115 123 c75 0 116 -57 116 -111c0 -64 -47 -104 -94 -111c-3 -1 -5 -2 -5 -4c0 -1 2 -2 3 -3c2 0 23 -5 47 -5c101 0 154 55 154 159c0 53 -11 123 -30 219c-23 -4 -50 -7 -79 -7c-186 0 -349 147 -349 334c0 200 126 321 217 406c21 17 73 70 74 71c-17 112 -22 161 -22 215 c0 84 18 212 82 288c33 39 64 51 71 51c18 0 47 -35 71 -86c16 -36 44 -110 44 -201c0 -159 -73 -284 -179 -395c9 -56 19 -115 29 -175c146 0 253 -102 253 -253c0 -103 -73 -205 -171 -237c6 -39 12 -69 15 -89c10 -57 16 -102 16 -141c0 -63 -14 -129 -68 -167 c-36 -22 -77 -34 -124 -34c-135 0 -186 87 -186 153z" />
      </g>
      <g id="E0A2-nc53yt6">
         <path transform="scale(1,-1)" d="M195 -102c41 0 75 8 75 57c0 25 -18 89 -32 116s-32 33 -60 33c-15 0 -31 -2 -43 -6c-24 -8 -34 -24 -32 -51c1 -27 19 -91 32 -116s32 -33 60 -33zM187 136c138 0 186 -70 186 -135s-48 -135 -186 -135s-187 70 -187 135s49 135 187 135z" />
      </g>
      <g id="E0FA-nc53yt6">
         <path transform="scale(1,-1)" d="M187 136c138 0 186 -70 186 -135s-48 -135 -186 -135s-187 70 -187 135s49 135 187 135z" />
      </g>
      <g id="E260-nc53yt6">
         <path transform="scale(1,-1)" d="M132 40v11c0 21 -3 55 -39 55c-40 0 -55 -29 -57 -38l-3 -195c58 46 99 88 99 167zM120 155c59 0 83 -49 83 -101c0 -103 -90 -185 -176 -228c-2 -1 -6 -2 -8 -2c-8 0 -14 6 -14 14l-5 601c0 8 6 14 14 14h12c8 0 14 -6 14 -14l-4 -321c5 6 34 37 84 37z" />
      </g>
      <g id="E262-nc53yt6">
         <path transform="scale(1,-1)" d="M78 74v-166l89 19v165zM233 105l-38 -7v-165l33 7h2c8 0 14 -6 14 -14v-59c0 -6 -5 -13 -11 -14l-38 -7v-147h-28v141l-89 -18v-155h-28v149l-33 -7h-3c-8 0 -14 6 -14 14v58c0 6 5 13 11 14l39 8v165l-33 -7h-3c-8 0 -14 6 -14 14v58c0 6 5 13 11 14l39 8v147h28v-141 l89 18v155h28v-149l33 7h2c8 0 14 -6 14 -14v-59c0 -6 -5 -13 -11 -14z" />
      </g>
      <g id="E062-nc53yt6">
         <path transform="scale(1,-1)" d="M568 124c0 28 22 51 48 51s48 -23 48 -51s-22 -50 -48 -50s-48 22 -48 50zM254 251c180 0 274 -112 274 -286c0 -184 -158 -362 -298 -463c-91 -71 -205 -118 -206 -118s-4 -1 -5 -1c-6 0 -15 2 -18 12c0 2 -1 3 -1 5c0 12 12 19 12 19c1 0 99 45 203 140 c98 88 181 275 181 405c0 168 -50 250 -152 250c-35 0 -67 -6 -92 -20c-39 -21 -69 -65 -76 -109c8 7 25 17 35 21c9 3 20 5 32 5c56 0 106 -47 106 -104c0 -66 -50 -109 -114 -109c-74 0 -116 54 -116 127s38 139 97 182c1 0 62 44 138 44zM568 -123c0 28 22 51 48 51 s48 -23 48 -51s-22 -51 -48 -51s-48 23 -48 51z" />
      </g>
   </defs>
   <style type="text/css">#nc53yt6 g.ending, #nc53yt6 g.fing, #nc53yt6 g.reh, #nc53yt6 g.tempo {font-weight:bold;}#nc53yt6 g.dir, #nc53yt6 g.dynam, #nc53yt6 g.mNum {font-style:italic;}#nc53yt6 g.label {font-weight:normal;}#nc53yt6 ellipse, #nc53yt6 path, #nc53yt6 polygon, #nc53yt6 polyline, #nc53yt6 rect {stroke:currentColor}#nc53yt6 g.cursor {fill:dodgerblue; color:dodgerblue;}#nc53yt6 g.cursor.chord {fill:limegreen; color:limegreen;}</style>
   <svg class="definition-scale" color="black" font-family="Times, serif" viewBox="0 -944 14690 4794">
      <g class="page-margin" transform="translate(450, 100)">
         <g id="opgg8ts" class="mdiv pageMilestone" />
         <g id="p1ewr64o" class="score pageMilestone" />
         <g id="n1b6le40" class="system">
            <path d="M13 596 L13 3116" stroke-width="27" />
            <g id="ygtpe2x" class="grpSym">
               <path d="M-72,3098 C-432,2558 18,2036 -252,1856 C81,2036 -369,2558 -72,3098" stroke-width="18" stroke-linecap="round" stroke-linejoin="round" />
               <path d="M-72,614 C-369,1154 81,1676 -252,1856 C18,1676 -432,1154 -72,614" stroke-width="18" stroke-linecap="round" stroke-linejoin="round" />
            </g>
            <g id="lv0an4k" class="section systemMilestone" />
            <g id="m1p7mdce" class="measure">
               <g id="v9a8p0h" class="staff">
                  <path d="M0 596 L14145 596" stroke-width="13" />
                  <path d="M0 776 L14145 776" stroke-width="13" />
                  <path d="M0 956 L14145 956" stroke-width="13" />
                  <path d="M0 1136 L14145 1136" stroke-width="13" />
                  <path d="M0 1316 L14145 1316" stroke-width="13" />
                  <g id="j608yct" class="clef">
                     <use href="#E050-nc53yt6" transform="translate(117, 1136) scale(0.72, 0.72)" />
                  </g>
                  <g id="kw3bte5" class="keySig" />
                  <g class="ledgerLines above">
                     <path d="M10777 416 L11141 416" stroke-width="22" />
                     <path d="M11607 416 L11971 416" stroke-width="22" />
                     <path d="M12437 416 L12801 416" stroke-width="22" />
                     <path d="M13267 416 L13631 416" stroke-width="22" />
                     <path d="M13267 236 L13631 236" stroke-width="22" />
                  </g>
                  <g class="ledgerLines below">
                     <path d="M3307 1496 L3671 1496" stroke-width="22" />
                  </g>
                  <g id="w1f97zvs" class="layer">
                     <g id="x1vl8oo9" class="space" />
                     <g id="y13rvtw3" class="space" />
                     <g id="z14fwkxf" class="space" />
                     <g id="n4" class="note">
                        <g class="notehead">
                           <use href="#E0A2-nc53yt6" transform="translate(3355, 1496) scale(0.72, 0.72)" />
                        </g>
                     </g>
                     <g id="n5" class="note">
                        <g class="notehead">
                           <use href="#E0A2-nc53yt6" transform="translate(4185, 1316) scale(0.72, 0.72)" />
                        </g>
                     </g>
                     <g id="n6" class="note">
                        <g class="notehead">
                           <use href="#E0A2-nc53yt6" transform="translate(5015, 1136) scale(0.72, 0.72)" />
                        </g>
                     </g>
                     <g id="n7" class="note">
                        <g class="notehead">
                           <use href="#E0FA-nc53yt6" transform="translate(5845, 956) scale(0.72, 0.72)" />
                        </g>
                        <g id="e1j96li0" class="accid">
                           <use href="#E260-nc53yt6" transform="translate(5654, 956) scale(0.72, 0.72)" />
                        </g>
                     </g>
                     <g id="n8" class="note">
                        <g class="notehead">
                           <use href="#E0A2-nc53yt6" transform="translate(6675, 866) scale(0.72, 0.72)" />
                        </g>
                     </g>
                     <g id="n9" class="note">
                        <g class="notehead">
                           <use href="#E0A2-nc53yt6" transform="translate(7505, 776) scale(0.72, 0.72)" />
                        </g>
                     </g>
                     <g id="n10" class="note">
                        <g class="notehead">
                           <use href="#E0A2-nc53yt6" transform="translate(8335, 686) scale(0.72, 0.72)" />
                        </g>
                     </g>
                     <g id="n11" class="note">
                        <g class="notehead">
                           <use href="#E0FA-nc53yt6" transform="translate(9165, 596) scale(0.72, 0.72)" />
                        </g>
                        <g id="j1kcpxpz" class="accid">
                           <use href="#E262-nc53yt6" transform="translate(8945, 596) scale(0.72, 0.72)" />
                        </g>
                     </g>
                     <g id="n12" class="note">
                        <g class="notehead">
                           <use href="#E0A2-nc53yt6" transform="translate(9995, 506) scale(0.72, 0.72)" />
                        </g>
                     </g>
                     <g id="n13" class="note">
                        <g class="notehead">
                           <use href="#E0FA-nc53yt6" transform="translate(10825, 416) scale(0.72, 0.72)" />
                        </g>
                        <g id="m138bf2x" class="accid">
                           <use href="#E260-nc53yt6" transform="translate(10608, 416) scale(0.72, 0.72)" />
                        </g>
                     </g>
                     <g id="n14" class="note">
                        <g class="notehead">
                           <use href="#E0FA-nc53yt6" transform="translate(11655, 326) scale(0.72, 0.72)" />
                        </g>
                        <g id="o3a47i3" class="accid">
                           <use href="#E260-nc53yt6" transform="translate(11438, 326) scale(0.72, 0.72)" />
                        </g>
                     </g>
                     <g id="n15" class="note">
                        <g class="notehead">
                           <use href="#E0A2-nc53yt6" transform="translate(12485, 326) scale(0.72, 0.72)" />
                        </g>
                     </g>
                     <g id="n16" class="note">
                        <g class="notehead">
                           <use href="#E0A2-nc53yt6" transform="translate(13315, 236) scale(0.72, 0.72)" />
                        </g>
                     </g>
                  </g>
               </g>
               <g id="r14pcqe2" class="staff">
                  <path d="M0 2396 L14145 2396" stroke-width="13" />
                  <path d="M0 2576 L14145 2576" stroke-width="13" />
                  <path d="M0 2756 L14145 2756" stroke-width="13" />
                  <path d="M0 2936 L14145 2936" stroke-width="13" />
                  <path d="M0 3116 L14145 3116" stroke-width="13" />
                  <g id="l5u9pyo" class="clef">
                     <use href="#E062-nc53yt6" transform="translate(117, 2576) scale(0.72, 0.72)" />
                  </g>
                  <g id="mxoegy3" class="keySig" />
                  <g class="ledgerLines below">
                     <path d="M817 3296 L1181 3296" stroke-width="22" />
                     <path d="M817 3476 L1181 3476" stroke-width="22" />
                  </g>
                  <g id="sa3ki9w" class="layer">
                     <g id="n1" class="note">
                        <g class="notehead">
                           <use href="#E0A2-nc53yt6" transform="translate(865, 3476) scale(0.72, 0.72)" />
                        </g>
                     </g>
                     <g id="n2" class="note">
                        <g class="notehead">
                           <use href="#E0A2-nc53yt6" transform="translate(1695, 2846) scale(0.72, 0.72)" />
                        </g>
                     </g>
                     <g id="n3" class="note">
                        <g class="notehead">
                           <use href="#E0A2-nc53yt6" transform="translate(2525, 2486) scale(0.72, 0.72)" />
                        </g>
                     </g>
                     <g id="w1g7kqui" class="space" />
                     <g id="xyvx33o" class="space" />
                     <g id="y4b0jrg" class="space" />
                     <g id="z18twiky" class="space" />
                     <g id="aj4ld9p" class="space" />
                     <g id="b1xch72e" class="space" />
                     <g id="c11dup6r" class="space" />
                     <g id="dj8pvs0" class="space" />
                     <g id="e1k2miq9" class="space" />
                     <g id="fzt62td" class="space" />
                     <g id="g1g9shl9" class="space" />
                     <g id="h1tq36sb" class="space" />
                     <g id="i1igrsk" class="space" />
                  </g>
               </g>
               <g id="uc6qxpb" class="barLine" />
            </g>
            <g id="qmfytwr" class="systemMilestoneEnd lv0an4k" />
         </g>
         <g id="ru6axyh" class="pageMilestoneEnd p1ewr64o" />
         <g id="s1rai1pe" class="pageMilestoneEnd opgg8ts" />
      </g>
   <g class="tm-numeros" transform="translate(450 100)"><text x="1017" y="-404" fill="#8a5a00" text-anchor="middle" font-family="Arial, Helvetica, sans-serif" font-weight="700" font-size="340">1</text><text x="1847" y="-404" fill="#8a5a00" text-anchor="middle" font-family="Arial, Helvetica, sans-serif" font-weight="700" font-size="340">2</text><text x="2677" y="-404" fill="#8a5a00" text-anchor="middle" font-family="Arial, Helvetica, sans-serif" font-weight="700" font-size="340">3</text><text x="3507" y="-404" fill="#8a5a00" text-anchor="middle" font-family="Arial, Helvetica, sans-serif" font-weight="700" font-size="340">4</text><text x="4337" y="-404" fill="#8a5a00" text-anchor="middle" font-family="Arial, Helvetica, sans-serif" font-weight="700" font-size="340">5</text><text x="5167" y="-404" fill="#8a5a00" text-anchor="middle" font-family="Arial, Helvetica, sans-serif" font-weight="700" font-size="340">6</text><text x="5997" y="-404" fill="#8a5a00" text-anchor="middle" font-family="Arial, Helvetica, sans-serif" font-weight="700" font-size="340">7</text><text x="6827" y="-404" fill="#8a5a00" text-anchor="middle" font-family="Arial, Helvetica, sans-serif" font-weight="700" font-size="340">8</text><text x="7657" y="-404" fill="#8a5a00" text-anchor="middle" font-family="Arial, Helvetica, sans-serif" font-weight="700" font-size="340">9</text><text x="8487" y="-404" fill="#8a5a00" text-anchor="middle" font-family="Arial, Helvetica, sans-serif" font-weight="700" font-size="340">10</text><text x="9317" y="-404" fill="#8a5a00" text-anchor="middle" font-family="Arial, Helvetica, sans-serif" font-weight="700" font-size="340">11</text><text x="10147" y="-404" fill="#8a5a00" text-anchor="middle" font-family="Arial, Helvetica, sans-serif" font-weight="700" font-size="340">12</text><text x="10977" y="-404" fill="#8a5a00" text-anchor="middle" font-family="Arial, Helvetica, sans-serif" font-weight="700" font-size="340">13</text><text x="11807" y="-404" fill="#8a5a00" text-anchor="middle" font-family="Arial, Helvetica, sans-serif" font-weight="700" font-size="340">14</text><text x="12637" y="-404" fill="#8a5a00" text-anchor="middle" font-family="Arial, Helvetica, sans-serif" font-weight="700" font-size="340">15</text><text x="13467" y="-404" fill="#8a5a00" text-anchor="middle" font-family="Arial, Helvetica, sans-serif" font-weight="700" font-size="340">16</text></g></svg>
</svg>
